HIERARCHY
ROOT Pelvis
{
	OFFSET 0.000000 0.000000 0.000000
	CHANNELS 6 Xposition Yposition Zposition Zrotation Yrotation Xrotation 
	JOINT Left_hip
	{
		OFFSET 0.069463 -0.088608 -0.009542
		CHANNELS 3 Zrotation Yrotation Xrotation
		JOINT Left_knee
		{
			OFFSET 0.030639 -0.359740 -0.005288
			CHANNELS 3 Zrotation Yrotation Xrotation
			JOINT Left_ankle
			{
				OFFSET -0.011068 -0.376034 -0.042462
				CHANNELS 3 Zrotation Yrotation Xrotation
				JOINT Left_foot
				{
					OFFSET 0.023192 -0.053321 0.111332
					CHANNELS 3 Zrotation Yrotation Xrotation
					End Site
					{
						OFFSET 0.000000 0.000000 0.000000
					}
				}
			}
		}
	}
	JOINT Right_hip
	{
		OFFSET -0.067438 -0.088025 -0.006263
		CHANNELS 3 Zrotation Yrotation Xrotation
		JOINT Right_knee
		{
			OFFSET -0.035962 -0.366229 -0.008063
			CHANNELS 3 Zrotation Yrotation Xrotation
			JOINT Right_ankle
			{
				OFFSET 0.013608 -0.375719 -0.040481
				CHANNELS 3 Zrotation Yrotation Xrotation
				JOINT Right_foot
				{
					OFFSET -0.021034 -0.045527 0.114617
					CHANNELS 3 Zrotation Yrotation Xrotation
					End Site
					{
						OFFSET 0.000000 0.000000 0.000000
					}
				}
			}
		}
	}
	JOINT Spine1
	{
		OFFSET -0.002610 0.101823 -0.019986
		CHANNELS 3 Zrotation Yrotation Xrotation
		JOINT Spine2
		{
			OFFSET 0.004114 0.128714 -0.000938
			CHANNELS 3 Zrotation Yrotation Xrotation
			JOINT Spine3
			{
				OFFSET 0.002191 0.048470 0.027684
				CHANNELS 3 Zrotation Yrotation Xrotation
				JOINT Neck
				{
					OFFSET -0.002856 0.198873 -0.044022
					CHANNELS 3 Zrotation Yrotation Xrotation
					JOINT Head
					{
						OFFSET 0.002981 0.062960 0.049860
						CHANNELS 3 Zrotation Yrotation Xrotation
						End Site
						{
							OFFSET 0.000000 0.000000 0.000000
						}
					}
				}
				JOINT Left_collar
				{
					OFFSET 0.073708 0.112550 -0.033440
					CHANNELS 3 Zrotation Yrotation Xrotation
					JOINT Left_shoulder
					{
						OFFSET 0.083291 0.030786 -0.008013
						CHANNELS 3 Zrotation Yrotation Xrotation
						JOINT Left_elbow
						{
							OFFSET 0.245601 -0.011792 -0.027873
							CHANNELS 3 Zrotation Yrotation Xrotation
							JOINT Left_wrist
							{
								OFFSET 0.232258 0.008622 -0.000487
								CHANNELS 3 Zrotation Yrotation Xrotation
								JOINT Left_palm
								{
									OFFSET 0.077300 -0.009457 -0.012851
									CHANNELS 3 Zrotation Yrotation Xrotation
									End Site
									{
										OFFSET 0.000000 0.000000 0.000000
									}
								}
							}
						}
					}
				}
				JOINT Right_collar
				{
					OFFSET -0.075339 0.110574 -0.037874
					CHANNELS 3 Zrotation Yrotation Xrotation
					JOINT Right_shoulder
					{
						OFFSET -0.086522 0.031207 -0.009986
						CHANNELS 3 Zrotation Yrotation Xrotation
						JOINT Right_elbow
						{
							OFFSET -0.237313 -0.011478 -0.019859
							CHANNELS 3 Zrotation Yrotation Xrotation
							JOINT Right_wrist
							{
								OFFSET -0.237599 0.007976 -0.003742
								CHANNELS 3 Zrotation Yrotation Xrotation
								JOINT Right_palm
								{
									OFFSET -0.076920 -0.006943 -0.009920
									CHANNELS 3 Zrotation Yrotation Xrotation
									End Site
									{
										OFFSET 0.000000 0.000000 0.000000
									}
								}
							}
						}
					}
				}
			}
		}
	}
}
MOTION
Frames: 13
Frame Time: 0.100000
0.000000 0.000000 0.000000 8.904777 34.502365 -177.729863 2.264253 5.818765 12.547389 0.093772 -13.860184 -1.423432 -1.009049 5.355750 -2.962930 -0.854381 4.899015 -2.370317 -1.492930 -6.928595 15.114946 -1.252954 -4.527222 0.065227 -0.675403 -7.184753 -8.605395 6.643404 -9.566952 3.811325 -0.323804 2.164848 8.273747 1.183191 -4.986011 6.528188 2.324664 -1.808698 -4.620189 -5.672746 7.306419 2.861999 -3.530813 5.077119 -15.614676 -25.209040 -7.037288 5.945831 -43.755536 -3.456864 14.595570 -1.668035 -22.700764 36.072962 9.635091 -8.480612 29.937848 -14.044974 -4.233501 -26.038270 26.978232 6.093464 5.458179 55.543105 -2.784218 10.019823 -6.294139 13.544520 -4.305044 -2.211223 2.490312 -12.961828 12.532881 6.828805 -9.564957 
-0.016063 -0.001215 0.003103 8.798248 33.481568 -176.398618 2.859119 5.054219 10.696584 0.312717 -14.252577 -0.458269 -1.680400 5.617829 -3.119894 -0.251659 4.455357 -1.246293 -0.396805 -7.795402 14.804796 -1.142091 -4.571481 -1.165843 0.470598 -7.842198 -8.505079 4.129122 -8.208136 3.134569 -0.917672 2.663052 8.905660 1.327073 -5.940639 6.484538 3.105960 -1.792189 -4.672321 -7.469317 7.197669 -1.889168 -1.519914 4.966955 -22.065994 -22.715101 -10.662306 5.519079 -41.762064 -5.183614 11.514500 1.885551 -18.395850 27.165020 13.629127 -6.165627 25.931613 -13.825908 -4.769809 -23.985167 25.565729 8.289225 5.499931 57.312153 -3.586279 9.848324 -7.009499 14.034032 -3.374584 -3.332884 1.590047 -11.693004 13.044996 7.660089 -9.558035 
-0.036931 0.003928 -0.003260 9.505306 36.274712 -176.766486 2.864571 4.947574 11.168947 0.631672 -12.895869 3.311063 0.995375 6.299708 -4.514695 -3.676969 7.198642 -2.025445 -0.045345 -7.909004 15.758323 -1.158093 -2.961646 0.157450 -1.029516 -7.904043 -8.326971 6.285399 -6.470600 2.552690 -0.580672 2.929351 8.129188 1.091523 -4.938030 6.296858 2.862878 -1.554503 -4.222079 -5.013490 8.070830 1.718220 -2.120861 7.064174 -19.259708 -23.463649 -8.862367 4.019805 -41.222499 -8.337410 6.254255 3.147783 -7.611382 18.232414 6.486992 -1.365712 21.242687 -10.933824 -4.131904 -19.686117 25.653702 7.326026 4.771234 55.564415 -0.798710 10.738273 -6.024986 11.820962 -3.010288 -0.312559 0.253737 -9.475516 12.561388 7.661709 -7.716373 
-0.052860 0.012348 -0.001457 12.274211 36.891250 -179.229538 2.730786 2.253729 3.611741 0.728326 -10.676790 27.861069 -0.297028 10.276113 -7.631609 -4.048501 8.264615 -4.344295 3.596238 -8.569729 22.045925 -3.251776 -0.481665 -2.321719 -2.408290 -9.759261 -8.548935 8.303458 -6.449295 -0.300493 1.778684 3.569836 15.722113 1.608365 -4.868175 2.021905 4.354578 -1.464382 -0.860648 -6.196363 12.514243 -1.888833 -6.053390 12.514342 -16.947646 -18.831674 -7.427593 1.403447 -46.931747 -9.380663 3.372890 2.600412 -6.427604 16.722442 2.116837 1.858740 9.885961 -3.955189 -3.186182 -10.838018 21.973598 7.183184 1.853623 55.866121 3.607657 9.949890 -5.189182 9.915110 -1.290404 -3.462929 -2.372318 -5.550659 10.209397 7.342068 -5.996943 
-0.060648 0.018220 -0.005771 12.459441 34.678408 -176.912168 1.980767 -2.206007 -18.010463 0.230696 -1.703712 55.429034 -1.167885 10.954382 3.363950 -2.255051 8.556563 -11.591880 4.431295 -9.255725 20.909979 -2.361262 0.001462 -3.605952 -3.792504 -10.648152 -8.054205 3.517398 -6.654199 -2.475648 4.022290 5.622801 18.600462 1.989202 -5.336596 -0.575515 5.163900 -0.594509 0.026885 -9.425867 11.455633 -6.933596 -4.940731 16.049735 -20.369154 -15.528831 -9.080609 0.960798 -51.260489 -9.985719 4.134147 2.585615 -5.949149 15.003866 2.282548 2.998082 4.229776 -4.825200 -3.332337 -9.233854 17.593250 9.134391 2.526610 56.762103 4.983510 8.995642 -5.802121 10.403324 -3.279275 -5.267143 -2.818908 -6.945927 10.452222 7.066056 -6.680674 
-0.073839 0.019905 -0.029136 10.111731 33.978068 -175.230803 0.313580 -3.037177 -29.336943 -0.155037 4.778377 53.233370 -1.124549 9.354444 4.758034 -1.114766 8.857969 -12.117941 3.117728 -9.775729 19.095045 -3.375119 -0.349315 -3.000156 -1.416955 -11.319438 -8.604933 -1.400290 -5.245512 -4.184443 4.234426 6.791002 19.389210 1.031656 -5.332295 -3.176463 4.478071 0.076375 0.536482 -9.551019 7.236528 -9.488698 -2.095170 12.860136 -21.089571 -13.259939 -8.135917 0.734030 -53.537101 -8.630926 4.506871 1.833439 -4.842739 15.321313 3.340435 2.612889 2.800610 -4.375734 -2.931159 -8.997118 13.999609 9.905611 2.109455 58.772907 6.328207 9.325332 -3.640421 8.712278 -1.478268 -6.293836 -2.759304 -5.675076 9.126292 6.817624 -6.721305 
-0.097830 0.026562 -0.073390 8.008918 34.458511 -174.478351 -1.913236 -1.679884 -26.252367 -0.482275 6.770313 26.230043 -1.999859 8.947730 3.966087 2.488333 8.845051 -8.248579 1.014128 -10.010491 21.362061 -4.307373 -1.034358 -4.795526 1.933706 -11.284410 -8.793823 -3.891411 -4.345611 -5.007458 3.685756 7.277484 17.504167 -0.552607 -5.089890 -2.529077 3.575926 0.793215 0.691529 -9.827984 7.632521 -9.073345 -1.943131 11.475272 -21.801444 -11.856173 -6.974151 0.993149 -55.148345 -5.988898 4.743814 1.541511 -4.162636 14.999164 4.245141 1.679405 3.046928 -3.977911 -2.621266 -11.054973 11.418205 9.907428 2.307450 62.218824 7.144185 10.716978 -2.929566 11.009522 -0.195651 -6.485536 -1.558995 -5.934916 8.488738 6.536631 -7.848739 
-0.130486 0.044909 -0.135495 8.367600 33.143857 -173.517486 -4.231738 1.578356 -15.324014 -0.262731 5.329914 -4.350407 -2.932846 8.919026 4.367534 4.340879 7.667576 -3.865391 -0.193097 -10.667199 25.302694 -3.548304 -2.814448 -4.450569 2.147365 -10.470163 -9.283453 -0.165691 -4.060371 -3.329824 4.190080 6.152597 15.537581 -0.697635 -4.912465 -1.052992 3.439726 0.796131 -0.033718 -8.927472 7.849546 -6.930996 -3.297390 9.893811 -20.135937 -14.825603 -5.033661 1.293840 -55.212178 -3.308545 4.048353 2.540177 -2.521709 12.376352 4.409602 0.185041 4.856226 -3.416802 -2.260577 -13.005197 13.615847 9.360592 2.623882 59.895902 7.686883 10.995498 -2.852542 12.306657 0.108044 -6.392160 0.431873 -4.377131 7.517298 5.893378 -7.247377 
-0.162092 0.065055 -0.221546 7.584942 29.594279 -173.623913 -6.210842 0.931223 -12.406550 -0.616365 5.430165 -1.112694 -2.674602 8.547712 9.429285 3.625937 7.870800 -6.723030 -1.648066 -10.823014 28.005592 -3.794770 -3.135823 0.924899 2.913877 -11.822172 -5.625906 -1.382033 -2.855465 -6.296477 3.725170 5.837445 13.496443 -0.473787 -5.261217 -0.783372 3.037953 0.064996 -0.054496 -8.322259 5.296873 -6.888650 -2.865302 9.491371 -19.435943 -15.989289 -2.567876 1.884491 -56.523263 -2.813142 2.889153 2.935173 -0.962265 10.988808 4.407091 0.309094 4.517807 -4.142963 -2.736905 -12.949241 14.715885 6.687997 2.025494 60.691758 5.198392 10.929935 -5.064792 14.000090 -1.876934 -6.865770 0.436582 -3.017863 7.765876 6.013601 -6.630039 
-0.187734 0.069417 -0.320845 6.109525 27.678697 -175.229697 -8.358740 1.300598 -5.772042 -2.116190 0.821090 1.128133 1.480985 6.719849 5.743540 0.849694 10.104382 -8.134827 -6.081901 -10.743203 24.738135 -4.373301 -2.556316 17.308148 10.110035 -14.472275 7.910422 -8.767720 0.694568 -14.807761 2.420577 5.516152 11.464649 -1.009406 -3.288424 0.099738 1.908913 0.121156 0.076336 -6.341367 1.692828 -6.615970 -1.867548 8.427994 -18.202977 -16.745394 0.279283 2.365478 -57.203921 -3.485603 1.566606 3.507766 -2.055902 11.493083 3.862610 2.568213 6.878081 -6.549810 -4.822114 -14.777875 15.484971 4.577693 1.927554 63.030243 2.127285 10.535221 -5.705820 12.231300 -5.526935 -5.340359 -1.575101 0.457739 10.362239 7.535120 -8.212357 
-0.203822 0.086107 -0.401640 5.667019 24.630262 -179.840348 -8.874755 5.134660 7.309003 -2.921183 -6.092104 -1.786313 5.560379 5.400714 1.031275 -2.534150 11.965215 -8.008690 -11.840663 -11.561700 17.275560 -5.526244 -5.576712 41.724592 13.446921 -19.945887 24.579291 -12.871360 2.629109 -22.080125 1.210197 3.190747 13.039344 -0.967316 -1.631097 2.253309 1.346743 -0.553402 -0.211607 -3.375846 -2.606120 -4.526638 -0.466205 7.072401 -15.856810 -18.492298 0.314833 3.624166 -55.783856 -5.112323 -0.666568 3.645259 -1.733123 10.546679 2.719045 3.942461 9.711021 -7.309527 -6.371179 -16.670214 17.301118 5.277586 1.448283 63.025562 1.291761 10.230178 -6.260798 10.812651 -8.110000 -2.478342 -3.168613 6.492236 10.593494 8.622157 -8.250497 
-0.221854 0.098710 -0.462954 7.594436 20.403574 175.534937 -5.648414 8.918349 20.537767 -0.749518 -13.672732 -4.965398 3.674765 5.646473 -0.774801 -2.687887 12.922879 -8.949910 -9.792353 -9.418596 8.395176 -5.280159 -5.972571 56.156745 8.545531 -19.176708 12.994255 -5.398062 3.180773 -18.702371 2.413815 -0.801895 17.284594 -0.071235 -0.932916 5.263736 1.789169 -1.813496 -0.509250 -2.390355 2.131424 -2.305732 -4.556026 8.613144 -14.327818 -22.443064 -1.666859 3.849033 -53.456377 -6.049664 -1.265040 4.250093 -3.564173 9.549722 2.685307 4.188500 11.698942 -5.407884 -5.504854 -16.700913 21.150203 6.412337 1.265856 58.928410 1.872572 9.666863 -10.143786 15.423829 -10.637629 -3.421446 -2.716187 7.889036 8.958193 7.897936 -7.024256 
-0.245716 0.103200 -0.518819 8.846412 12.634868 175.390691 -2.490997 8.603469 25.172801 1.604945 -19.511776 -4.321971 0.683664 5.202787 -1.524994 -2.233217 11.492818 -9.799310 -4.428668 -5.689360 -2.767107 -5.368389 -8.691874 51.028285 4.165371 -18.733934 3.550204 -0.938233 1.114750 -11.936925 3.062134 -4.282960 18.868433 0.858906 -1.603628 4.587408 2.625132 -3.255288 -0.525915 -2.045473 3.105872 1.245049 -4.516056 7.639689 -12.768463 -21.762842 -3.250833 4.392599 -54.035537 -8.116419 0.649224 4.478736 -4.692044 11.124596 1.416520 3.358676 10.758808 -2.992921 -4.026173 -15.502951 19.986213 5.746321 0.892913 59.592569 0.796750 10.004714 -12.182067 19.853736 -8.686492 -2.799075 -1.908739 2.584409 6.785982 6.911016 -4.955331 
